# xmcd
#
# Track frame offsets: 
#        150
#        19169
#        36619
#        52793
#        71710
#        93048
#        114926
#        132020
#        149361
#        166846
#        185228
#        203382
#        220977
#        239982
#        257122
#        275332
#        289963
#        306975
#
# Disc length: 4371 seconds
#
# Revision: 0
# Processed by: cddbd v1.5.2PL0 Copyright (c) Steve Scherf et al.
# Submitted via: ExactAudioCopy v1.0b1
#
DISCID=13111112
DTITLE=bernard Lavilliers - Les N° 1
DYEAR=2009
DGENRE=Blues
TTITLE0=Petit
TTITLE1=On the road again
TTITLE2=Outremer
TTITLE3=Faits divers
TTITLE4=Troisièmes couteaux
TTITLE5=Minha  Selva
TTITLE6=Melody tempo harmony
TTITLE7=Le venin
TTITLE8=Roméo Machado
TTITLE9=Jamaica
TTITLE10=Les mains d'or
TTITLE11=Elle chante
TTITLE12=L'été
TTITLE13=Question de peau
TTITLE14=Marin...
TTITLE15=Solitaire
TTITLE16=Bosse
TTITLE17=Samedi soir à Beyrouth
EXTD=
EXTT0=
EXTT1=
EXTT2=
EXTT3=
EXTT4=
EXTT5=
EXTT6=
EXTT7=
EXTT8=
EXTT9=
EXTT10=
EXTT11=
EXTT12=
EXTT13=
EXTT14=
EXTT15=
EXTT16=
EXTT17=
PLAYORDER=
